<svg width="1050" height="141" viewBox="0 0 1050 141" fill="none" xmlns="http://www.w3.org/2000/svg">
<g clip-path="url(#clip0_3106_5716)">
<g clip-path="url(#clip1_3106_5716)">
<g clip-path="url(#clip2_3106_5716)">
<g clip-path="url(#clip3_3106_5716)">
<g clip-path="url(#clip4_3106_5716)">
<g clip-path="url(#clip5_3106_5716)">
<g clip-path="url(#clip6_3106_5716)">
<path d="M205 25.6381L205.193 22.0669H228.01C237.932 22.0669 245.679 24.4348 251.252 29.1706C256.811 33.9193 259.591 40.5662 259.591 49.1113C259.591 54.645 258.297 59.5482 255.711 63.8207C253.137 68.0933 249.559 71.4199 244.978 73.8007C240.384 76.1944 235.101 77.3912 229.13 77.3912H205.193L205 73.8007L210.752 72.4881C210.881 71.9218 210.991 70.3196 211.081 67.6815C211.184 65.0433 211.235 62.0255 211.235 58.628V40.9073C211.235 37.1366 211.184 33.9644 211.081 31.3906C210.991 28.8167 210.881 27.3432 210.752 26.97L205 25.6381ZM219.439 27.1438C219.439 27.7743 219.42 28.5787 219.381 29.5567C219.355 30.5348 219.323 31.8989 219.285 33.6491C219.259 35.4122 219.246 37.8316 219.246 40.9073V58.628C219.246 60.5198 219.259 62.2957 219.285 63.9558C219.323 65.6288 219.388 67.1216 219.478 68.4343C219.568 69.7598 219.645 70.8601 219.709 71.7352C221.717 71.9926 223.525 72.1985 225.134 72.3529C226.729 72.5074 228.287 72.5846 229.805 72.5846C236.459 72.5846 241.516 70.8086 244.978 67.2568C248.427 63.7049 250.151 58.5701 250.151 51.8524C250.151 47.7601 249.649 44.1438 248.646 41.0038C247.642 37.8637 246.149 35.2127 244.167 33.0507C242.185 30.8758 239.766 29.2414 236.909 28.1475C234.052 27.0408 230.738 26.4874 226.968 26.4874C225.835 26.4874 224.645 26.5389 223.396 26.6419C222.135 26.7319 220.816 26.8992 219.439 27.1438ZM297.754 78.2406C292.285 78.2406 287.433 77.0437 283.199 74.6501C278.952 72.2693 275.632 68.9426 273.238 64.6701C270.858 60.3975 269.667 55.4944 269.667 49.9607C269.667 44.427 270.877 39.4917 273.296 35.1548C275.716 30.8308 279.075 27.4269 283.373 24.9431C287.684 22.4594 292.542 21.2175 297.947 21.2175C303.223 21.2175 307.869 22.4079 311.884 24.7887C315.912 27.1824 319.072 30.4833 321.362 34.6915C323.653 38.8997 324.799 43.7706 324.799 49.3044C324.799 53.5126 324.078 57.3797 322.637 60.9059C321.195 64.4191 319.213 67.482 316.691 70.0944C314.182 72.694 311.312 74.7016 308.082 76.1172C304.839 77.5328 301.396 78.2406 297.754 78.2406ZM298.603 73.1444C302.052 73.1444 305.019 72.2693 307.502 70.5191C309.986 68.756 311.904 66.253 313.255 63.01C314.606 59.7798 315.282 55.9641 315.282 51.5629C315.282 46.4796 314.497 42.0204 312.927 38.1855C311.357 34.3505 309.208 31.3455 306.479 29.1706C303.738 27.0086 300.515 25.9276 296.808 25.9276C291.468 25.9276 287.24 27.9223 284.126 31.9118C281.024 35.9012 279.474 41.3191 279.474 48.1654C279.474 53.0686 280.291 57.3926 281.925 61.1375C283.559 64.8696 285.818 67.8037 288.701 69.94C291.596 72.0763 294.897 73.1444 298.603 73.1444ZM378.81 63.9172H377.111V42.799C377.111 39.0927 377.099 36.1264 377.073 33.9C377.034 31.6608 376.97 29.9943 376.88 28.9004C376.777 27.7936 376.7 27.1502 376.648 26.97L370.239 25.6381L370.51 22.0669H388.423L388.713 25.6381L382.864 26.97C382.864 27.1502 382.819 27.7936 382.729 28.9004C382.626 29.9943 382.542 31.6737 382.478 33.9386C382.414 36.2036 382.381 39.1571 382.381 42.799V65.2299C382.381 67.2375 382.381 69.2772 382.381 71.3491C382.381 73.4339 382.414 75.5767 382.478 77.7773H378.25L343.562 31.1203H345.627V56.3695C345.627 60.1402 345.659 63.158 345.724 65.4229C345.788 67.6879 345.865 69.3673 345.955 70.4612C346.058 71.5679 346.136 72.2436 346.187 72.4881L352.596 73.8007L352.326 77.3912H334.219L333.948 73.8007L339.701 72.4881C339.817 72.2436 339.907 71.5872 339.971 70.5191C340.036 69.451 340.1 67.7651 340.164 65.4615C340.229 63.1708 340.261 60.1402 340.261 56.3695V40.2509C340.261 37.4197 340.229 35.0969 340.164 33.2823C340.1 31.4549 340.036 30.0393 339.971 29.0355C339.907 28.0317 339.817 27.3432 339.701 26.97L333.948 25.6381L334.219 22.0669H347.133L378.81 63.9172ZM409.156 77.3912H393.327L393.134 73.8007L397.747 72.4881L417.167 23.6691L422.63 20.3682L443.188 72.4881L447.898 73.8007L447.608 77.3912H428.575L428.382 73.8007L434.135 72.4881L428.575 58.5315L427.533 55.6167L417.263 29.9814L419.425 28.746L409.619 55.6167L408.596 58.4543L403.596 72.4881L409.349 73.8007L409.156 77.3912ZM406.511 59.96V54.9603C407.708 55.0247 409.342 55.089 411.414 55.1534C413.486 55.2177 416.034 55.2499 419.058 55.2499C422.005 55.2499 424.534 55.2177 426.645 55.1534C428.742 55.089 430.357 55.0247 431.49 54.9603V59.96C429.354 59.8956 427.237 59.8442 425.139 59.8056C423.028 59.7798 421.002 59.7669 419.058 59.7669C417.167 59.7669 415.198 59.7798 413.151 59.8056C411.118 59.8442 408.905 59.8956 406.511 59.96ZM472.201 77.3912H452.782L452.608 73.8007L458.341 72.3915C458.341 71.954 458.361 71.2784 458.399 70.3647C458.425 69.451 458.438 68.37 458.438 67.1216C458.438 65.8605 458.457 64.4899 458.496 63.01C458.521 61.5429 458.534 60.0822 458.534 58.628V40.9073C458.534 38.0246 458.521 35.5923 458.496 33.6105C458.457 31.6286 458.406 30.0908 458.341 28.9969C458.29 27.8902 458.232 27.2145 458.168 26.97L452.319 25.6381L452.608 22.0669H473.244C479.151 22.0669 483.661 23.2122 486.776 25.5029C489.877 27.7936 491.428 31.1718 491.428 35.6374C491.428 38.7131 490.585 41.4606 488.899 43.88C487.2 46.2994 484.826 48.2041 481.776 49.5939C478.726 50.9709 475.251 51.6594 471.352 51.6594H465.329V47.4126H470.696C474.595 47.4126 477.626 46.441 479.788 44.4977C481.963 42.5545 483.05 39.852 483.05 36.3902C483.05 33.0571 482.104 30.5283 480.212 28.8039C478.333 27.0794 475.631 26.2172 472.105 26.2172H466.642C466.578 26.333 466.533 26.5839 466.507 26.97C466.468 27.3432 466.449 27.9674 466.449 28.8425C466.449 29.7304 466.449 31.0238 466.449 32.7225C466.449 34.4084 466.449 36.6669 466.449 39.4981V58.628C466.449 61.3305 466.468 63.5955 466.507 65.4229C466.533 67.2375 466.597 68.6981 466.7 69.8049C466.79 70.8987 466.867 71.761 466.931 72.3915L472.491 73.8007L472.201 77.3912ZM497.47 78.3371C494.703 78.3371 492.251 77.8159 490.115 76.7735C487.979 75.744 485.92 74.0002 483.938 71.5422C481.956 69.0971 479.775 65.8283 477.394 61.7359L470.985 50.0572L478.05 48.455L488.223 63.4346C489.986 66.0213 491.576 68.0804 492.991 69.6118C494.407 71.1561 495.803 72.3015 497.18 73.0479C498.57 73.8071 500.082 74.3412 501.717 74.6501L501.62 77.951C500.99 78.0797 500.314 78.1762 499.593 78.2406C498.873 78.3049 498.165 78.3371 497.47 78.3371ZM517.449 77.3912H501.601L501.427 73.8007L506.041 72.4881L525.46 23.6691L530.923 20.3682L551.462 72.4881L556.192 73.8007L555.902 77.3912H536.869L536.676 73.8007L542.428 72.4881L536.869 58.5315L535.826 55.6167L525.557 29.9814L527.719 28.746L517.912 55.6167L516.87 58.4543L511.89 72.4881L517.642 73.8007L517.449 77.3912ZM514.805 59.96V54.9603C516.001 55.0247 517.636 55.089 519.708 55.1534C521.78 55.2177 524.321 55.2499 527.333 55.2499C530.293 55.2499 532.828 55.2177 534.938 55.1534C537.036 55.089 538.651 55.0247 539.784 54.9603V59.96C537.647 59.8956 535.524 59.8442 533.413 59.8056C531.316 59.7798 529.289 59.7669 527.333 59.7669C525.454 59.7669 523.491 59.7798 521.445 59.8056C519.412 59.8442 517.198 59.8956 514.805 59.96Z" fill="#F3A83C"/>
<path d="M577.406 78.2406C574.639 78.2406 571.808 77.8931 568.913 77.1982C566.03 76.5161 563.643 75.641 561.751 74.5729L561.288 62.4116L565.341 62.0255L567.967 70.4226C569.485 71.4264 571.171 72.1921 573.024 72.7197C574.877 73.2602 576.808 73.5305 578.815 73.5305C581.891 73.5305 584.375 72.7776 586.267 71.2719C588.145 69.7534 589.085 67.7072 589.085 65.1334C589.085 62.9327 588.429 61.0989 587.116 59.6318C585.79 58.1519 584.072 56.8585 581.962 55.7518C579.864 54.6579 577.638 53.5898 575.283 52.5474C572.928 51.5179 570.714 50.3275 568.642 48.9762C566.557 47.6249 564.839 45.9584 563.488 43.9766C562.137 41.9947 561.461 39.5303 561.461 36.5832C561.461 33.559 562.33 30.8694 564.067 28.5143C565.792 26.1593 568.16 24.3383 571.171 23.0514C574.195 21.7645 577.651 21.121 581.537 21.121C583.172 21.121 584.761 21.1982 586.305 21.3527C587.849 21.5071 589.278 21.758 590.591 22.1055C591.916 22.453 593.113 22.8455 594.181 23.283L594.934 35.0776L590.88 35.4443L588.236 27.5298C586.228 26.2687 583.654 25.6381 580.514 25.6381C577.31 25.6381 574.749 26.4231 572.831 27.9931C570.914 29.5631 569.955 31.6093 569.955 34.1317C569.955 36.3966 570.631 38.2948 571.982 39.8263C573.333 41.3706 575.058 42.7089 577.155 43.8414C579.266 44.9739 581.499 46.0549 583.854 47.0844C586.209 48.1268 588.441 49.3044 590.552 50.617C592.65 51.9425 594.374 53.564 595.725 55.4815C597.077 57.399 597.752 59.7669 597.752 62.5853C597.752 65.6095 596.877 68.2992 595.127 70.6542C593.364 73.0093 590.957 74.8624 587.907 76.2137C584.857 77.5649 581.357 78.2406 577.406 78.2406ZM617.461 77.3912H601.613L601.42 73.8007L606.053 72.4881L625.472 23.6691L630.935 20.3682L651.474 72.4881L656.184 73.8007L655.914 77.3912H636.861L636.688 73.8007L642.44 72.4881L636.861 58.5315L635.838 55.6167L625.569 29.9814L627.731 28.746L617.925 55.6167L616.882 58.4543L611.883 72.4881L617.635 73.8007L617.461 77.3912ZM614.817 59.96V54.9603C616.013 55.0247 617.648 55.089 619.72 55.1534C621.792 55.2177 624.333 55.2499 627.345 55.2499C630.305 55.2499 632.833 55.2177 634.931 55.1534C637.042 55.089 638.663 55.0247 639.796 54.9603V59.96C637.659 59.8956 635.536 59.8442 633.425 59.8056C631.328 59.7798 629.301 59.7669 627.345 59.7669C625.466 59.7669 623.503 59.7798 621.457 59.8056C619.411 59.8442 617.197 59.8956 614.817 59.96ZM680.507 77.3912H661.088L660.895 73.8007L666.647 72.3915C666.647 71.954 666.666 71.2784 666.705 70.3647C666.731 69.451 666.744 68.37 666.744 67.1216C666.744 65.8605 666.756 64.4899 666.782 63.01C666.821 61.5429 666.84 60.0822 666.84 58.628V40.9073C666.84 38.0246 666.821 35.5923 666.782 33.6105C666.756 31.6286 666.711 30.0908 666.647 28.9969C666.583 27.8902 666.518 27.2145 666.454 26.97L660.624 25.6381L660.895 22.0669H681.549C687.456 22.0669 691.961 23.2122 695.062 25.5029C698.176 27.7936 699.733 31.1718 699.733 35.6374C699.733 38.7131 698.884 41.4606 697.185 43.88C695.487 46.2994 693.119 48.2041 690.082 49.5939C687.032 50.9709 683.557 51.6594 679.658 51.6594H673.616V47.4126H679.001C682.901 47.4126 685.931 46.441 688.093 44.4977C690.255 42.5545 691.336 39.852 691.336 36.3902C691.336 33.0571 690.397 30.5283 688.518 28.8039C686.626 27.0794 683.924 26.2172 680.411 26.2172H674.948C674.883 26.333 674.838 26.5839 674.812 26.97C674.774 27.3432 674.755 27.9674 674.755 28.8425C674.755 29.7304 674.755 31.0238 674.755 32.7225C674.755 34.4084 674.755 36.6669 674.755 39.4981V58.628C674.755 61.3305 674.774 63.5955 674.812 65.4229C674.838 67.2375 674.896 68.6981 674.986 69.8049C675.089 70.8987 675.166 71.761 675.218 72.3915L680.797 73.8007L680.507 77.3912ZM705.776 78.3371C703.009 78.3371 700.557 77.8159 698.421 76.7735C696.285 75.744 694.225 74.0002 692.244 71.5422C690.262 69.0971 688.074 65.8283 685.68 61.7359L679.272 50.0572L686.356 48.455L696.529 63.4346C698.292 66.0213 699.882 68.0804 701.297 69.6118C702.7 71.1561 704.096 72.3015 705.486 73.0479C706.863 73.8071 708.369 74.3412 710.003 74.6501L709.907 77.951C709.289 78.0797 708.613 78.1762 707.88 78.2406C707.159 78.3049 706.458 78.3371 705.776 78.3371ZM714.057 25.6381L714.25 22.0669H737.047C746.982 22.0669 754.73 24.4348 760.289 29.1706C765.849 33.9193 768.628 40.5662 768.628 49.1113C768.628 54.645 767.341 59.5482 764.768 63.8207C762.194 68.0933 758.61 71.4199 754.015 73.8007C749.434 76.1944 744.158 77.3912 738.186 77.3912H714.25L714.057 73.8007L719.809 72.4881C719.938 71.9218 720.047 70.3196 720.137 67.6815C720.228 65.0433 720.273 62.0255 720.273 58.628V40.9073C720.273 37.1366 720.228 33.9644 720.137 31.3906C720.047 28.8167 719.938 27.3432 719.809 26.97L714.057 25.6381ZM728.477 27.1438C728.477 27.7743 728.464 28.5787 728.438 29.5567C728.399 30.5348 728.367 31.8989 728.342 33.6491C728.303 35.4122 728.284 37.8316 728.284 40.9073V58.628C728.284 60.5198 728.303 62.2957 728.342 63.9558C728.367 65.6288 728.425 67.1216 728.515 68.4343C728.618 69.7598 728.702 70.8601 728.766 71.7352C730.774 71.9926 732.575 72.1985 734.171 72.3529C735.78 72.5074 737.337 72.5846 738.843 72.5846C745.509 72.5846 750.566 70.8086 754.015 67.2568C757.477 63.7049 759.208 58.5701 759.208 51.8524C759.208 47.7601 758.706 44.1438 757.702 41.0038C756.699 37.8637 755.206 35.2127 753.224 33.0507C751.242 30.8758 748.823 29.2414 745.966 28.1475C743.109 27.0408 739.795 26.4874 736.024 26.4874C734.892 26.4874 733.695 26.5389 732.434 26.6419C731.173 26.7319 729.854 26.8992 728.477 27.1438ZM790.017 77.3912H774.188L773.995 73.8007L778.608 72.4881L798.028 23.6691L803.51 20.3682L824.049 72.4881L828.759 73.8007L828.47 77.3912H809.436L809.243 73.8007L814.996 72.4881L809.436 58.5315L808.394 55.6167L798.124 29.9814L800.286 28.746L790.499 55.6167L789.457 58.4543L784.457 72.4881L790.21 73.8007L790.017 77.3912ZM787.391 59.96V54.9603C788.575 55.0247 790.203 55.089 792.275 55.1534C794.36 55.2177 796.908 55.2499 799.92 55.2499C802.867 55.2499 805.395 55.2177 807.506 55.1534C809.616 55.089 811.231 55.0247 812.351 54.9603V59.96C810.215 59.8956 808.098 59.8442 806 59.8056C803.89 59.7798 801.863 59.7669 799.92 59.7669C798.028 59.7669 796.065 59.7798 794.032 59.8056C791.986 59.8442 789.772 59.8956 787.391 59.96ZM853.082 77.3912H833.662L833.469 73.8007L839.222 72.3915C839.222 71.954 839.235 71.2784 839.26 70.3647C839.299 69.451 839.318 68.37 839.318 67.1216C839.318 65.8605 839.331 64.4899 839.357 63.01C839.396 61.5429 839.415 60.0822 839.415 58.628V40.9073C839.415 38.0246 839.396 35.5923 839.357 33.6105C839.331 31.6286 839.286 30.0908 839.222 28.9969C839.157 27.8902 839.093 27.2145 839.029 26.97L833.18 25.6381L833.469 22.0669H854.105C860.012 22.0669 864.522 23.2122 867.637 25.5029C870.751 27.7936 872.308 31.1718 872.308 35.6374C872.308 38.7131 871.459 41.4606 869.76 43.88C868.061 46.2994 865.687 48.2041 862.637 49.5939C859.587 50.9709 856.119 51.6594 852.232 51.6594H846.19V47.4126H851.557C855.456 47.4126 858.493 46.441 860.668 44.4977C862.83 42.5545 863.911 39.852 863.911 36.3902C863.911 33.0571 862.972 30.5283 861.093 28.8039C859.201 27.0794 856.499 26.2172 852.985 26.2172H847.522C847.458 26.333 847.407 26.5839 847.368 26.97C847.342 27.3432 847.329 27.9674 847.329 28.8425C847.329 29.7304 847.329 31.0238 847.329 32.7225C847.329 34.4084 847.329 36.6669 847.329 39.4981V58.628C847.329 61.3305 847.342 63.5955 847.368 65.4229C847.407 67.2375 847.471 68.6981 847.561 69.8049C847.651 70.8987 847.728 71.761 847.793 72.3915L853.352 73.8007L853.082 77.3912ZM878.331 78.3371C875.564 78.3371 873.113 77.8159 870.976 76.7735C868.84 75.744 866.787 74.0002 864.818 71.5422C862.837 69.0971 860.649 65.8283 858.255 61.7359L851.846 50.0572L858.912 48.455L869.104 63.4346C870.854 66.0213 872.437 68.0804 873.853 69.6118C875.268 71.1561 876.671 72.3015 878.061 73.0479C879.438 73.8071 880.943 74.3412 882.578 74.6501L882.481 77.951C881.851 78.0797 881.175 78.1762 880.454 78.2406C879.734 78.3049 879.026 78.3371 878.331 78.3371ZM933.289 25.6381L928.559 26.97L909.255 56.8521L911.611 50.4433V59.3809C911.611 61.7745 911.623 63.7692 911.649 65.365C911.675 66.9737 911.707 68.267 911.746 69.2451C911.771 70.2102 911.816 70.9438 911.881 71.4457C911.945 71.9476 911.977 72.295 911.977 72.4881L918.579 73.7235L918.386 77.3912H896.901L896.612 73.7235L903.213 72.4881C903.278 72.295 903.342 71.9476 903.406 71.4457C903.471 70.9438 903.516 70.2102 903.542 69.2451C903.58 68.267 903.612 66.9737 903.638 65.365C903.664 63.7692 903.677 61.7745 903.677 59.3809V50.4433L905.568 56.8521L886.902 26.97L882.192 25.6381L882.385 22.0669H901.901L902.171 25.6381L896.419 26.97L910.279 49.2078H908.966L922.247 26.97L915.664 25.6381L915.935 22.0669H933.095L933.289 25.6381ZM949.291 77.3912H933.462L933.269 73.8007L937.902 72.4881L957.322 23.6691L962.785 20.3682L983.324 72.4881L988.034 73.8007L987.763 77.3912H968.711L968.537 73.8007L974.27 72.4881L968.711 58.5315L967.688 55.6167L957.399 29.9814L959.58 28.746L949.774 55.6167L948.731 58.4543L943.732 72.4881L949.484 73.8007L949.291 77.3912ZM946.666 59.96V54.9603C947.863 55.0247 949.497 55.089 951.569 55.1534C953.641 55.2177 956.183 55.2499 959.194 55.2499C962.154 55.2499 964.683 55.2177 966.78 55.1534C968.891 55.089 970.512 55.0247 971.645 54.9603V59.96C969.509 59.8956 967.385 59.8442 965.275 59.8056C963.177 59.7798 961.15 59.7669 959.194 59.7669C957.315 59.7669 955.353 59.7798 953.306 59.8056C951.26 59.8442 949.047 59.8956 946.666 59.96ZM1037.34 63.9172H1035.64V42.799C1035.64 39.0927 1035.62 36.1264 1035.58 33.9C1035.55 31.6608 1035.5 29.9943 1035.4 28.9004C1035.3 27.7936 1035.22 27.1502 1035.15 26.97L1028.75 25.6381L1029.03 22.0669H1046.95L1047.22 25.6381L1041.39 26.97C1041.39 27.1502 1041.34 27.7936 1041.23 28.9004C1041.14 29.9943 1041.07 31.6737 1041 33.9386C1040.94 36.2036 1040.91 39.1571 1040.91 42.799V65.2299C1040.91 67.2375 1040.91 69.2772 1040.91 71.3491C1040.91 73.4339 1040.94 75.5767 1041 77.7773H1036.76L1002.09 31.1203H1004.15V56.3695C1004.15 60.1402 1004.18 63.158 1004.25 65.4229C1004.31 67.6879 1004.39 69.3673 1004.48 70.4612C1004.57 71.5679 1004.65 72.2436 1004.71 72.4881L1011.12 73.8007L1010.85 77.3912H992.744L992.474 73.8007L998.207 72.4881C998.335 72.2436 998.432 71.5872 998.496 70.5191C998.561 69.451 998.625 67.7651 998.689 65.4615C998.754 63.1708 998.786 60.1402 998.786 56.3695V40.2509C998.786 37.4197 998.754 35.0969 998.689 33.2823C998.625 31.4549 998.561 30.0393 998.496 29.0355C998.432 28.0317 998.335 27.3432 998.207 26.97L992.474 25.6381L992.744 22.0669H1005.66L1037.34 63.9172Z" fill="#FBEAAB"/>
</g>
</g>
<g clip-path="url(#clip7_3106_5716)">
<g clip-path="url(#clip8_3106_5716)">
<path d="M210.12 111.888V109.635H214.902V96.6263H208.19V100.285H205.027V94.3736H227.94V100.285H224.771V96.6263H218.065V109.635H222.847V111.888H210.12ZM225.618 101.806V101.27H228.954V95.0823H229.513V101.806H225.618ZM219.079 108.794V97.6114H224.183V98.1472H219.638V108.794H219.079ZM205.868 101.806V101.27H209.204V97.6114H214.309V98.1472H209.769V101.806H205.868ZM210.961 112.873H223.861V110.424H224.42V113.409H210.961V112.873ZM232.272 111.888V109.779H235.366V94.5177H232.272V92.265H238.391V100.44C238.679 100.083 239.026 99.7488 239.433 99.4377C239.844 99.1305 240.301 98.8616 240.805 98.6312C241.312 98.4007 241.861 98.2202 242.452 98.0896C243.044 97.959 243.662 97.8937 244.307 97.8937C245.283 97.8937 246.17 98.032 246.969 98.3085C247.764 98.5851 248.444 99.0114 249.009 99.5875C249.569 100.164 250.003 100.89 250.311 101.765C250.614 102.645 250.766 103.684 250.766 104.882V109.779H253.859V111.888H245.35V109.779H247.741V106.08C247.741 105.32 247.707 104.642 247.637 104.047C247.564 103.451 247.463 102.985 247.332 102.647C247.163 102.217 246.95 101.852 246.693 101.552C246.435 101.249 246.145 101.005 245.823 100.82C245.5 100.632 245.145 100.496 244.757 100.411C244.373 100.327 243.966 100.285 243.535 100.285C243.074 100.285 242.598 100.369 242.107 100.538C241.615 100.707 241.137 100.943 240.672 101.247C240.207 101.55 239.777 101.909 239.382 102.324C238.982 102.735 238.652 103.181 238.391 103.661V109.779H240.782V111.888H232.272ZM239.37 98.4987V92.9852H239.935V98.1299C239.85 98.1684 239.754 98.2202 239.647 98.2855C239.539 98.3508 239.447 98.4218 239.37 98.4987ZM233.113 96.0386V95.5028H234.773V96.0386H233.113ZM251.78 108.932V104.98C251.78 104.154 251.716 103.388 251.59 102.681C251.463 101.975 251.273 101.337 251.019 100.769C250.766 100.2 250.455 99.7104 250.086 99.2995C249.713 98.8885 249.283 98.5601 248.795 98.3143C249.433 98.4756 249.976 98.7445 250.426 99.1209C250.879 99.5011 251.246 99.9831 251.526 100.567C251.807 101.147 252.012 101.817 252.143 102.578C252.273 103.338 252.339 104.172 252.339 105.078V108.932H251.78ZM239.399 108.932V104.012C239.633 103.597 239.913 103.221 240.24 102.883C240.563 102.549 240.91 102.261 241.283 102.019C241.659 101.781 242.051 101.596 242.458 101.466C242.869 101.335 243.28 101.27 243.691 101.27C244.336 101.27 244.868 101.391 245.287 101.633C245.705 101.879 246.009 102.188 246.197 102.56C245.905 102.345 245.558 102.165 245.154 102.019C244.751 101.877 244.254 101.806 243.662 101.806C243.297 101.806 242.927 101.871 242.55 102.001C242.178 102.132 241.826 102.305 241.496 102.52C241.169 102.735 240.872 102.983 240.603 103.263C240.334 103.547 240.121 103.839 239.963 104.139V108.932H239.399ZM246.197 112.873H254.873V110.568H255.438V113.409H246.197V112.873ZM233.113 112.873H241.79V110.568H242.354V113.409H233.113V112.873ZM257.754 105.36C257.754 104.366 257.937 103.419 258.301 102.52C258.67 101.621 259.219 100.828 259.949 100.141C260.679 99.4569 261.589 98.9116 262.68 98.5044C263.767 98.0973 265.027 97.8937 266.459 97.8937C267.811 97.8937 269.017 98.0743 270.077 98.4353C271.137 98.7963 272.038 99.3187 272.779 100.002C273.517 100.686 274.081 101.523 274.473 102.514C274.861 103.501 275.055 104.629 275.055 105.896H260.836C260.921 106.572 261.138 107.171 261.487 107.694C261.841 108.22 262.288 108.663 262.83 109.024C263.375 109.385 263.992 109.66 264.679 109.848C265.37 110.036 266.091 110.131 266.84 110.131C267.45 110.131 268.072 110.081 268.706 109.981C269.34 109.885 269.937 109.752 270.498 109.583C271.059 109.414 271.56 109.224 272.002 109.013C272.443 108.802 272.781 108.583 273.016 108.356H273.551L274.871 109.791C273.907 110.616 272.733 111.242 271.351 111.669C269.968 112.095 268.441 112.308 266.77 112.308C265.319 112.308 264.032 112.13 262.91 111.773C261.789 111.419 260.846 110.928 260.082 110.298C259.317 109.672 258.739 108.936 258.347 108.091C257.952 107.246 257.754 106.336 257.754 105.36ZM262.184 106.881H276.011C276.031 106.739 276.044 106.587 276.052 106.426C276.063 106.261 276.069 106.084 276.069 105.896C276.069 105.097 275.986 104.335 275.821 103.609C275.656 102.883 275.418 102.209 275.107 101.587C274.792 100.961 274.404 100.39 273.943 99.8756C273.486 99.3609 272.966 98.9212 272.382 98.5563C273 98.7982 273.571 99.1324 274.093 99.5587C274.611 99.9851 275.059 100.504 275.435 101.114C275.812 101.725 276.106 102.428 276.317 103.223C276.524 104.022 276.628 104.913 276.628 105.896C276.628 105.969 276.626 106.063 276.622 106.178C276.618 106.29 276.612 106.417 276.605 106.559C276.593 106.697 276.58 106.839 276.564 106.985C276.553 107.131 276.538 107.275 276.518 107.417H263.227C263.404 107.717 263.732 108.024 264.212 108.339C264.689 108.65 265.307 108.913 266.068 109.128C265.599 109.128 265.161 109.072 264.754 108.961C264.343 108.85 263.972 108.696 263.642 108.5C263.308 108.3 263.016 108.062 262.766 107.786C262.521 107.509 262.327 107.208 262.184 106.881ZM260.917 104.139H271.806C271.656 103.49 271.424 102.912 271.109 102.405C270.794 101.902 270.408 101.479 269.951 101.137C269.49 100.792 268.964 100.529 268.372 100.348C267.784 100.164 267.137 100.071 266.43 100.071C265.674 100.071 264.983 100.173 264.356 100.377C263.734 100.577 263.189 100.857 262.72 101.218C262.252 101.579 261.864 102.009 261.556 102.508C261.253 103.004 261.04 103.547 260.917 104.139ZM262.847 103.534H262.202C262.547 102.766 263.093 102.161 263.838 101.719C264.583 101.277 265.447 101.057 266.43 101.057C266.834 101.057 267.226 101.089 267.606 101.155C267.986 101.22 268.337 101.322 268.66 101.46C268.987 101.594 269.271 101.76 269.513 101.955C269.759 102.155 269.951 102.382 270.089 102.635C269.555 102.278 268.983 102.015 268.372 101.846C267.765 101.677 267.11 101.592 266.407 101.592C265.589 101.592 264.871 101.761 264.253 102.099C263.634 102.437 263.166 102.916 262.847 103.534ZM259.459 111.271C260.366 111.917 261.422 112.418 262.628 112.775C263.834 113.132 265.215 113.311 266.77 113.311C268.291 113.311 269.714 113.136 271.039 112.787C272.365 112.441 273.563 111.911 274.634 111.196L275.015 111.605C273.805 112.424 272.532 113 271.195 113.334C269.858 113.672 268.458 113.841 266.995 113.841C265.09 113.841 263.513 113.612 262.265 113.155C261.013 112.694 260.078 112.066 259.459 111.271ZM289.458 111.888V109.779H292.552V100.705H289.458V98.3143H295.577V100.423C295.857 100.066 296.193 99.7335 296.585 99.4262C296.98 99.1151 297.424 98.8482 297.916 98.6254C298.407 98.3988 298.941 98.2202 299.517 98.0896C300.093 97.959 300.706 97.8937 301.355 97.8937C302.676 97.8937 303.809 98.1511 304.754 98.6657C305.695 99.1804 306.423 99.9774 306.938 101.057C307.287 100.596 307.692 100.171 308.153 99.7834C308.618 99.3955 309.127 99.0613 309.68 98.781C310.233 98.4967 310.826 98.2778 311.46 98.1242C312.094 97.9706 312.758 97.8937 313.454 97.8937C314.418 97.8937 315.29 98.0339 316.069 98.3143C316.845 98.5947 317.508 99.0229 318.057 99.5991C318.606 100.179 319.029 100.907 319.324 101.783C319.62 102.658 319.768 103.691 319.768 104.882V109.779H322.862V111.888H314.352V109.779H316.743V106.15C316.743 105.266 316.705 104.498 316.628 103.845C316.555 103.188 316.428 102.681 316.248 102.324C315.894 101.583 315.414 101.057 314.808 100.746C314.204 100.438 313.494 100.285 312.676 100.285C312.207 100.285 311.729 100.371 311.241 100.544C310.754 100.717 310.285 100.959 309.836 101.27C309.386 101.577 308.969 101.942 308.585 102.364C308.201 102.787 307.877 103.242 307.612 103.73C307.631 103.918 307.646 104.108 307.658 104.3C307.666 104.492 307.669 104.686 307.669 104.882V109.779H310.06V111.888H302.254V109.779H304.645V106.08C304.645 105.32 304.61 104.642 304.541 104.047C304.472 103.451 304.37 102.985 304.236 102.647C303.909 101.794 303.431 101.187 302.801 100.826C302.175 100.465 301.436 100.285 300.583 100.285C300.114 100.285 299.64 100.369 299.16 100.538C298.684 100.707 298.223 100.941 297.777 101.241C297.332 101.541 296.919 101.896 296.539 102.307C296.158 102.722 295.838 103.167 295.577 103.643V109.779H297.967V111.888H289.458ZM317.798 98.3143C318.435 98.4756 318.979 98.7445 319.428 99.1209C319.877 99.5011 320.244 99.9831 320.528 100.567C320.809 101.147 321.014 101.817 321.145 102.578C321.275 103.338 321.341 104.172 321.341 105.078V108.932H320.782V104.98C320.782 104.154 320.719 103.388 320.592 102.681C320.465 101.975 320.275 101.337 320.021 100.769C319.768 100.2 319.455 99.7104 319.082 99.2995C318.714 98.8885 318.285 98.5601 317.798 98.3143ZM305.699 98.3143C306.152 98.3719 306.55 98.4987 306.892 98.6945C307.233 98.8904 307.498 99.1055 307.687 99.3398L307.278 99.72C307.22 99.6087 307.134 99.4819 307.018 99.3398C306.899 99.2015 306.767 99.0633 306.621 98.925C306.475 98.7906 306.321 98.6696 306.16 98.562C305.995 98.4545 305.841 98.3719 305.699 98.3143ZM308.683 108.932V104.012C308.918 103.597 309.19 103.221 309.501 102.883C309.809 102.549 310.141 102.261 310.498 102.019C310.855 101.781 311.23 101.596 311.622 101.466C312.017 101.335 312.42 101.27 312.831 101.27C313.48 101.27 314.012 101.391 314.427 101.633C314.846 101.879 315.149 102.188 315.338 102.56C315.046 102.345 314.698 102.165 314.295 102.019C313.891 101.877 313.394 101.806 312.803 101.806C312.438 101.806 312.075 101.867 311.714 101.99C311.353 102.117 311.015 102.29 310.7 102.508C310.385 102.724 310.102 102.971 309.853 103.252C309.599 103.532 309.398 103.822 309.248 104.122V108.932H308.683ZM296.585 108.932V104.012C296.819 103.597 297.092 103.221 297.403 102.883C297.71 102.549 298.042 102.261 298.4 102.019C298.757 101.781 299.133 101.596 299.529 101.466C299.92 101.335 300.324 101.27 300.739 101.27C301.384 101.27 301.916 101.391 302.334 101.633C302.749 101.879 303.051 102.188 303.239 102.56C302.947 102.345 302.599 102.165 302.196 102.019C301.793 101.877 301.297 101.806 300.71 101.806C300.341 101.806 299.976 101.867 299.615 101.99C299.254 102.117 298.918 102.29 298.607 102.508C298.292 102.724 298.008 102.971 297.754 103.252C297.501 103.532 297.299 103.822 297.149 104.122V108.932H296.585ZM290.299 102.226V101.69H291.958V102.226H290.299ZM315.194 112.873H323.876V110.568H324.435V113.409H315.194V112.873ZM303.101 112.873H311.074V110.568H311.639V113.409H303.101V112.873ZM290.299 112.873H298.976V110.568H299.54V113.409H290.299V112.873ZM326.589 105.32C326.589 104.298 326.808 103.334 327.246 102.428C327.688 101.525 328.304 100.738 329.095 100.066C329.89 99.3936 330.841 98.8635 331.947 98.4756C333.053 98.0877 334.267 97.8937 335.588 97.8937C336.975 97.8937 338.215 98.0781 339.31 98.4468C340.401 98.8194 341.325 99.334 342.081 99.9908C342.834 100.644 343.41 101.422 343.81 102.324C344.209 103.223 344.409 104.202 344.409 105.262C344.409 106.284 344.19 107.227 343.752 108.091C343.318 108.951 342.7 109.695 341.897 110.321C341.094 110.943 340.134 111.431 339.016 111.784C337.895 112.134 336.644 112.308 335.266 112.308C333.964 112.308 332.779 112.114 331.711 111.726C330.647 111.339 329.737 110.82 328.98 110.171C328.22 109.526 327.63 108.782 327.211 107.941C326.797 107.104 326.589 106.23 326.589 105.32ZM328.796 111.242C329.706 111.899 330.712 112.404 331.815 112.758C332.913 113.115 334.158 113.293 335.548 113.293C336.842 113.293 338.085 113.119 339.275 112.769C340.466 112.416 341.517 111.897 342.427 111.214C343.333 110.53 344.059 109.689 344.605 108.69C345.15 107.692 345.423 106.549 345.423 105.262C345.423 104.636 345.334 104.001 345.158 103.355C344.985 102.714 344.743 102.098 344.432 101.506C344.117 100.915 343.735 100.363 343.285 99.8526C342.832 99.3417 342.329 98.9096 341.776 98.5563C342.406 98.8367 342.98 99.2054 343.498 99.6624C344.021 100.123 344.464 100.648 344.829 101.235C345.194 101.819 345.478 102.453 345.682 103.136C345.882 103.824 345.981 104.533 345.981 105.262C345.981 106.18 345.851 107.031 345.59 107.815C345.329 108.598 344.966 109.307 344.501 109.94C344.036 110.574 343.483 111.135 342.842 111.623C342.196 112.111 341.49 112.516 340.721 112.838C339.953 113.161 339.135 113.407 338.267 113.576C337.399 113.745 336.516 113.829 335.617 113.829C334.868 113.829 334.15 113.77 333.462 113.651C332.779 113.535 332.145 113.368 331.561 113.149C330.974 112.927 330.445 112.656 329.977 112.337C329.508 112.018 329.115 111.653 328.796 111.242ZM329.712 105.262C329.712 105.984 329.85 106.643 330.127 107.238C330.403 107.834 330.793 108.345 331.296 108.771C331.803 109.197 332.412 109.528 333.122 109.762C333.829 109.996 334.615 110.113 335.479 110.113C336.351 110.113 337.142 109.994 337.852 109.756C338.567 109.518 339.181 109.186 339.696 108.759C340.211 108.333 340.608 107.822 340.889 107.227C341.173 106.632 341.315 105.977 341.315 105.262C341.315 104.559 341.173 103.897 340.889 103.275C340.608 102.649 340.215 102.099 339.708 101.627C339.204 101.155 338.598 100.78 337.887 100.504C337.18 100.227 336.401 100.089 335.548 100.089C334.657 100.089 333.852 100.221 333.134 100.486C332.416 100.755 331.803 101.122 331.296 101.587C330.793 102.051 330.403 102.597 330.127 103.223C329.85 103.853 329.712 104.533 329.712 105.262ZM330.691 105.32C330.691 104.728 330.81 104.173 331.048 103.655C331.283 103.133 331.613 102.681 332.039 102.301C332.466 101.921 332.976 101.621 333.572 101.402C334.167 101.183 334.826 101.074 335.548 101.074C336.005 101.074 336.451 101.122 336.885 101.218C337.315 101.318 337.712 101.462 338.077 101.65C338.442 101.834 338.767 102.061 339.051 102.33C339.331 102.599 339.556 102.902 339.725 103.24C339.106 102.676 338.461 102.263 337.789 102.001C337.121 101.736 336.364 101.604 335.519 101.604C334.908 101.604 334.346 101.704 333.831 101.904C333.316 102.099 332.867 102.366 332.483 102.704C332.095 103.042 331.794 103.436 331.578 103.885C331.363 104.335 331.256 104.813 331.256 105.32C331.256 105.742 331.308 106.136 331.411 106.501C331.515 106.866 331.692 107.206 331.941 107.521C332.187 107.836 332.518 108.12 332.932 108.373C333.343 108.627 333.858 108.852 334.476 109.047C333.916 109.009 333.403 108.89 332.938 108.69C332.473 108.487 332.074 108.222 331.74 107.895C331.409 107.565 331.152 107.179 330.968 106.737C330.783 106.299 330.691 105.827 330.691 105.32ZM349.824 111.888V108.022H352.716C352.97 108.406 353.331 108.742 353.799 109.03C354.272 109.322 354.81 109.562 355.413 109.75C356.016 109.939 356.678 110.079 357.4 110.171C358.122 110.267 358.864 110.315 359.624 110.315C360.254 110.315 360.79 110.267 361.231 110.171C361.669 110.079 362.025 109.948 362.297 109.779C362.57 109.61 362.768 109.412 362.891 109.186C363.01 108.963 363.069 108.715 363.069 108.443C363.069 107.87 362.612 107.381 361.698 106.973C360.784 106.566 359.338 106.253 357.36 106.034C356.046 105.896 354.95 105.702 354.07 105.452C353.187 105.203 352.476 104.901 351.939 104.548C351.401 104.191 351.017 103.782 350.786 103.321C350.556 102.864 350.441 102.359 350.441 101.806C350.441 101.326 350.59 100.851 350.89 100.383C351.19 99.914 351.647 99.4934 352.261 99.1209C352.876 98.7522 353.646 98.4545 354.571 98.2279C355.493 98.0051 356.578 97.8937 357.827 97.8937C358.23 97.8937 358.643 97.9206 359.065 97.9744C359.484 98.032 359.895 98.1146 360.298 98.2221C360.701 98.3297 361.087 98.4583 361.456 98.6081C361.821 98.7579 362.147 98.9269 362.436 99.1151V98.3258H365.46V102.128H362.436C362.336 101.836 362.121 101.56 361.79 101.299C361.464 101.034 361.076 100.803 360.627 100.607C360.173 100.411 359.695 100.254 359.192 100.135C358.685 100.02 358.205 99.962 357.752 99.962C357.164 99.962 356.607 100.004 356.081 100.089C355.555 100.173 355.1 100.292 354.716 100.446C354.331 100.6 354.026 100.784 353.799 100.999C353.577 101.218 353.465 101.458 353.465 101.719C353.465 101.961 353.552 102.182 353.725 102.382C353.897 102.578 354.187 102.76 354.595 102.929C355.006 103.098 355.551 103.256 356.231 103.401C356.911 103.544 357.756 103.676 358.766 103.799C360.118 103.968 361.258 104.183 362.188 104.444C363.113 104.709 363.868 105.032 364.452 105.412C365.032 105.792 365.451 106.234 365.708 106.737C365.965 107.244 366.094 107.826 366.094 108.483C366.094 108.963 365.95 109.43 365.662 109.883C365.37 110.34 364.946 110.749 364.389 111.11C363.828 111.467 363.142 111.757 362.332 111.98C361.521 112.199 360.592 112.308 359.543 112.308C358.867 112.308 358.234 112.283 357.642 112.233C357.051 112.18 356.484 112.093 355.943 111.974C355.397 111.851 354.871 111.696 354.364 111.508C353.857 111.319 353.35 111.089 352.843 110.816V111.888H349.824ZM363.127 103.643V103.113H366.474V98.9192H367.039V103.643H363.127ZM354.491 101.719C354.518 101.596 354.631 101.483 354.831 101.379C355.027 101.276 355.276 101.185 355.58 101.108C355.887 101.028 356.225 100.964 356.594 100.918C356.966 100.868 357.339 100.843 357.711 100.843C358.03 100.843 358.36 100.868 358.702 100.918C359.044 100.964 359.369 101.03 359.676 101.114C359.979 101.199 360.256 101.304 360.506 101.431C360.751 101.558 360.945 101.7 361.087 101.857C360.872 101.765 360.615 101.688 360.315 101.627C360.016 101.566 359.709 101.516 359.394 101.477C359.079 101.443 358.771 101.416 358.472 101.397C358.172 101.377 357.919 101.368 357.711 101.368C356.951 101.368 356.292 101.404 355.735 101.477C355.178 101.554 354.764 101.635 354.491 101.719ZM350.637 104.502C350.902 104.84 351.217 105.141 351.581 105.406C351.946 105.668 352.386 105.902 352.901 106.109C353.415 106.313 354.016 106.488 354.704 106.634C355.388 106.779 356.175 106.904 357.066 107.008C357.88 107.1 358.589 107.2 359.192 107.308C359.791 107.415 360.292 107.536 360.696 107.671C361.099 107.801 361.412 107.947 361.635 108.108C361.861 108.274 362.007 108.46 362.073 108.667C361.877 108.537 361.652 108.421 361.399 108.322C361.145 108.222 360.82 108.13 360.425 108.045C360.033 107.964 359.549 107.882 358.973 107.797C358.397 107.713 357.681 107.619 356.824 107.515C355.061 107.308 353.669 106.972 352.647 106.507C351.626 106.042 350.955 105.374 350.637 104.502ZM350.51 112.873H353.857V112.28C354.122 112.402 354.456 112.523 354.86 112.642C355.263 112.758 355.714 112.865 356.213 112.965C356.717 113.061 357.249 113.14 357.809 113.201C358.374 113.263 358.946 113.293 359.526 113.293C360.69 113.293 361.74 113.165 362.678 112.907C363.615 112.65 364.412 112.303 365.068 111.865C365.725 111.431 366.228 110.926 366.578 110.35C366.931 109.773 367.108 109.167 367.108 108.529C367.108 108.275 367.094 108.039 367.068 107.82C367.037 107.605 366.987 107.4 366.918 107.204C366.849 107.008 366.755 106.81 366.635 106.61C366.52 106.415 366.372 106.209 366.192 105.994C367.179 106.574 367.673 107.419 367.673 108.529C367.673 109.278 367.48 109.975 367.096 110.62C366.708 111.269 366.161 111.83 365.454 112.303C364.748 112.775 363.893 113.148 362.891 113.42C361.884 113.693 360.759 113.829 359.515 113.829C359.054 113.829 358.589 113.808 358.12 113.766C357.652 113.724 357.197 113.664 356.755 113.587C356.313 113.514 355.897 113.426 355.505 113.322C355.109 113.219 354.758 113.101 354.451 112.971V113.438H350.51V112.873ZM373.607 106.852V100.705H370.513V98.3143H373.607V95.474L376.631 94.2065V98.3143H383.62V100.705H376.631V107.417C376.631 108.12 376.85 108.642 377.288 108.984C377.73 109.326 378.331 109.497 379.091 109.497H383.055V111.888H379.091C378.331 111.888 377.618 111.805 376.954 111.64C376.286 111.479 375.704 111.202 375.208 110.81C374.713 110.422 374.321 109.908 374.033 109.266C373.749 108.621 373.607 107.816 373.607 106.852ZM377.639 97.4732V94.9786L378.204 94.7251V97.4732H377.639ZM377.616 107.993V101.535H384.634V98.948H385.192V102.071H378.175V108.552C377.856 108.468 377.67 108.281 377.616 107.993ZM371.354 102.226V101.69H373.042V102.226H371.354ZM373.52 110.678C373.82 111.1 374.156 111.452 374.528 111.732C374.897 112.013 375.312 112.237 375.773 112.406C376.23 112.575 376.731 112.696 377.276 112.769C377.822 112.838 378.417 112.873 379.062 112.873H384.069V110.131H384.634V113.409H378.993C378.271 113.409 377.614 113.361 377.023 113.265C376.431 113.173 375.909 113.021 375.456 112.81C374.999 112.598 374.609 112.316 374.286 111.963C373.964 111.613 373.708 111.185 373.52 110.678ZM398.046 116.416H400.437V100.705H397.343V98.3143H403.461V100.187C404.164 99.4723 405.019 98.9116 406.025 98.5044C407.027 98.0973 408.118 97.8937 409.297 97.8937C410.592 97.8937 411.742 98.0877 412.748 98.4756C413.751 98.8635 414.594 99.3801 415.278 100.025C415.961 100.667 416.482 101.4 416.839 102.226C417.196 103.052 417.375 103.905 417.375 104.784C417.375 105.929 417.181 106.948 416.793 107.843C416.401 108.738 415.854 109.495 415.151 110.113C414.448 110.736 413.609 111.21 412.633 111.536C411.658 111.863 410.58 112.026 409.401 112.026C408.18 112.026 407.06 111.842 406.042 111.473C405.024 111.104 404.164 110.567 403.461 109.86V116.416H407.258V118.525H398.046V116.416ZM404.406 115.713V111.859C405.082 112.235 405.862 112.521 406.745 112.717C407.632 112.913 408.525 113.011 409.424 113.011C410.665 113.011 411.828 112.836 412.915 112.487C414.002 112.134 414.951 111.613 415.761 110.926C416.576 110.234 417.217 109.376 417.686 108.35C418.154 107.325 418.389 106.136 418.389 104.784C418.389 104.204 418.304 103.607 418.135 102.992C417.966 102.378 417.726 101.783 417.415 101.206C417.108 100.63 416.727 100.089 416.274 99.5818C415.825 99.0748 415.32 98.6389 414.759 98.274C415.462 98.5928 416.078 99.0018 416.608 99.5011C417.138 100.004 417.578 100.552 417.928 101.143C418.281 101.735 418.546 102.345 418.723 102.975C418.903 103.609 418.994 104.212 418.994 104.784C418.994 106.105 418.773 107.306 418.331 108.385C417.889 109.464 417.254 110.386 416.424 111.15C415.594 111.915 414.586 112.504 413.399 112.919C412.213 113.338 410.874 113.547 409.384 113.547C409.007 113.547 408.623 113.526 408.232 113.484C407.836 113.441 407.446 113.384 407.062 113.311C406.678 113.234 406.305 113.144 405.944 113.04C405.583 112.936 405.259 112.819 404.971 112.689V115.713H404.406ZM403.461 105.066C403.461 105.815 403.619 106.486 403.934 107.077C404.249 107.669 404.677 108.17 405.218 108.581C405.764 108.996 406.399 109.312 407.125 109.531C407.855 109.75 408.637 109.86 409.47 109.86C410.211 109.86 410.88 109.743 411.475 109.508C412.07 109.274 412.579 108.942 413.002 108.512C413.42 108.081 413.745 107.559 413.975 106.945C414.206 106.33 414.321 105.648 414.321 104.899C414.321 104.185 414.187 103.53 413.918 102.935C413.653 102.339 413.286 101.831 412.817 101.408C412.349 100.986 411.798 100.657 411.164 100.423C410.53 100.189 409.849 100.071 409.119 100.071C408.32 100.071 407.577 100.189 406.889 100.423C406.198 100.657 405.601 100.993 405.097 101.431C404.59 101.865 404.191 102.389 403.899 103.004C403.607 103.618 403.461 104.306 403.461 105.066ZM404.475 105.049C404.475 104.515 404.585 104.004 404.804 103.517C405.026 103.029 405.339 102.603 405.743 102.238C406.146 101.873 406.628 101.583 407.189 101.368C407.753 101.153 408.381 101.045 409.073 101.045C409.814 101.045 410.471 101.174 411.043 101.431C411.615 101.688 412.051 102.028 412.351 102.451C411.79 102.094 411.239 101.861 410.697 101.754C410.16 101.646 409.618 101.592 409.073 101.592C408.466 101.592 407.917 101.688 407.425 101.881C406.93 102.073 406.507 102.326 406.158 102.641C405.804 102.956 405.533 103.319 405.345 103.73C405.161 104.141 405.069 104.567 405.069 105.009C405.069 105.862 405.284 106.597 405.714 107.215C406.144 107.838 406.843 108.373 407.811 108.823C407.312 108.719 406.858 108.558 406.451 108.339C406.044 108.116 405.693 107.843 405.397 107.521C405.101 107.198 404.875 106.829 404.717 106.415C404.556 106.004 404.475 105.548 404.475 105.049ZM398.19 102.226V101.69H399.849V102.226H398.19ZM398.893 119.51H408.272V117.205H408.836V120.046H398.893V119.51ZM422.393 111.888V109.779H425.486V100.705H422.393V98.3143H428.511V100.665C428.803 100.288 429.152 99.9313 429.56 99.5933C429.967 99.2553 430.43 98.9596 430.948 98.7061C431.463 98.4526 432.025 98.2548 432.636 98.1127C433.243 97.9667 433.894 97.8937 434.589 97.8937C434.797 97.8937 435.054 97.8995 435.361 97.911C435.672 97.9264 435.968 97.9571 436.248 98.0032V100.763C435.922 100.686 435.599 100.634 435.28 100.607C434.962 100.58 434.651 100.567 434.347 100.567C433.598 100.567 432.89 100.686 432.221 100.924C431.549 101.162 430.95 101.51 430.424 101.967C429.901 102.42 429.471 102.975 429.133 103.632C428.795 104.289 428.588 105.04 428.511 105.885V109.779H433.575V111.888H422.393ZM429.496 108.932V107.146C429.496 106.267 429.61 105.479 429.836 104.784C430.059 104.089 430.38 103.503 430.798 103.027C431.217 102.547 431.726 102.18 432.325 101.927C432.924 101.677 433.598 101.552 434.347 101.552C434.508 101.552 434.71 101.564 434.952 101.587C435.198 101.61 435.453 101.644 435.718 101.69C435.987 101.736 436.258 101.794 436.531 101.863C436.803 101.936 437.047 102.019 437.262 102.111V98.7925H437.821V102.814C437.56 102.702 437.278 102.603 436.974 102.514C436.667 102.426 436.358 102.349 436.047 102.284C435.732 102.215 435.428 102.165 435.136 102.134C434.845 102.099 434.581 102.082 434.347 102.082C433.664 102.082 433.057 102.195 432.527 102.422C431.997 102.649 431.549 102.971 431.184 103.39C430.819 103.812 430.541 104.329 430.349 104.94C430.157 105.55 430.061 106.24 430.061 107.008V108.932H429.496ZM423.24 102.226V101.69H424.899V102.226H423.24ZM423.24 112.873H434.589V110.568H435.154V113.409H423.24V112.873ZM440.425 105.36C440.425 104.366 440.608 103.419 440.973 102.52C441.337 101.621 441.887 100.828 442.62 100.141C443.35 99.4569 444.258 98.9116 445.345 98.5044C446.436 98.0973 447.698 97.8937 449.13 97.8937C450.482 97.8937 451.688 98.0743 452.749 98.4353C453.805 98.7963 454.704 99.3187 455.445 100.002C456.186 100.686 456.751 101.523 457.139 102.514C457.53 103.501 457.726 104.629 457.726 105.896H443.502C443.586 106.572 443.805 107.171 444.159 107.694C444.512 108.22 444.959 108.663 445.501 109.024C446.046 109.385 446.663 109.66 447.35 109.848C448.042 110.036 448.762 110.131 449.511 110.131C450.121 110.131 450.742 110.081 451.372 109.981C452.005 109.885 452.604 109.752 453.169 109.583C453.73 109.414 454.231 109.224 454.673 109.013C455.114 108.802 455.452 108.583 455.687 108.356H456.223L457.542 109.791C456.578 110.616 455.403 111.242 454.016 111.669C452.633 112.095 451.108 112.308 449.442 112.308C447.986 112.308 446.699 112.13 445.582 111.773C444.46 111.419 443.517 110.928 442.753 110.298C441.988 109.672 441.409 108.936 441.013 108.091C440.621 107.246 440.425 106.336 440.425 105.36ZM444.856 106.881H458.683C458.702 106.739 458.715 106.587 458.723 106.426C458.734 106.261 458.74 106.084 458.74 105.896C458.74 105.097 458.658 104.335 458.492 103.609C458.327 102.883 458.087 102.209 457.772 101.587C457.461 100.961 457.075 100.39 456.614 99.8756C456.153 99.3609 455.633 98.9212 455.053 98.5563C455.671 98.7982 456.242 99.1324 456.764 99.5587C457.283 99.9851 457.73 100.504 458.106 101.114C458.479 101.725 458.771 102.428 458.982 103.223C459.193 104.022 459.299 104.913 459.299 105.896C459.299 105.969 459.297 106.063 459.293 106.178C459.289 106.29 459.282 106.417 459.27 106.559C459.263 106.697 459.251 106.839 459.236 106.985C459.224 107.131 459.209 107.275 459.19 107.417H445.898C446.075 107.717 446.402 108.024 446.878 108.339C447.358 108.65 447.978 108.913 448.739 109.128C448.27 109.128 447.83 109.072 447.419 108.961C447.012 108.85 446.644 108.696 446.313 108.5C445.979 108.3 445.687 108.062 445.438 107.786C445.188 107.509 444.994 107.208 444.856 106.881ZM443.588 104.139H454.477C454.327 103.49 454.095 102.912 453.78 102.405C453.465 101.902 453.079 101.479 452.622 101.137C452.161 100.792 451.635 100.529 451.043 100.348C450.452 100.164 449.805 100.071 449.102 100.071C448.341 100.071 447.65 100.173 447.028 100.377C446.405 100.577 445.86 100.857 445.391 101.218C444.923 101.579 444.535 102.009 444.228 102.508C443.924 103.004 443.711 103.547 443.588 104.139ZM445.518 103.534H444.867C445.217 102.766 445.764 102.161 446.509 101.719C447.254 101.277 448.118 101.057 449.102 101.057C449.505 101.057 449.897 101.089 450.277 101.155C450.657 101.22 451.009 101.322 451.331 101.46C451.654 101.594 451.938 101.76 452.184 101.955C452.426 102.155 452.618 102.382 452.76 102.635C452.226 102.278 451.654 102.015 451.043 101.846C450.433 101.677 449.776 101.592 449.073 101.592C448.259 101.592 447.542 101.761 446.924 102.099C446.306 102.437 445.837 102.916 445.518 103.534ZM442.125 111.271C443.035 111.917 444.093 112.418 445.299 112.775C446.501 113.132 447.882 113.311 449.442 113.311C450.959 113.311 452.382 113.136 453.711 112.787C455.036 112.441 456.234 111.911 457.306 111.196L457.68 111.605C456.47 112.424 455.199 113 453.866 113.334C452.53 113.672 451.13 113.841 449.666 113.841C447.761 113.841 446.183 113.612 444.931 113.155C443.678 112.694 442.743 112.066 442.125 111.271ZM464.98 106.852V100.705H461.886V98.3143H464.98V95.474L468.004 94.2065V98.3143H474.998V100.705H468.004V107.417C468.004 108.12 468.225 108.642 468.667 108.984C469.109 109.326 469.708 109.497 470.464 109.497H474.434V111.888H470.464C469.708 111.888 468.995 111.805 468.327 111.64C467.662 111.479 467.082 111.202 466.587 110.81C466.088 110.422 465.696 109.908 465.412 109.266C465.124 108.621 464.98 107.816 464.98 106.852ZM469.018 97.4732V94.9786L469.583 94.7251V97.4732H469.018ZM468.989 107.993V101.535H476.007V98.948H476.571V102.071H469.554V108.552C469.235 108.468 469.047 108.281 468.989 107.993ZM462.733 102.226V101.69H464.421V102.226H462.733ZM464.899 110.678C465.199 111.1 465.533 111.452 465.901 111.732C466.274 112.013 466.689 112.237 467.146 112.406C467.607 112.575 468.108 112.696 468.65 112.769C469.195 112.838 469.792 112.873 470.441 112.873H475.448V110.131H476.007V113.409H470.366C469.644 113.409 468.989 113.361 468.402 113.265C467.81 113.173 467.286 113.021 466.829 112.81C466.376 112.598 465.988 112.316 465.665 111.963C465.339 111.613 465.083 111.185 464.899 110.678ZM482.165 106.852V100.705H479.072V98.3143H482.165V95.474L485.19 94.2065V98.3143H492.184V100.705H485.19V107.417C485.19 108.12 485.411 108.642 485.853 108.984C486.294 109.326 486.895 109.497 487.656 109.497H491.62V111.888H487.656C486.895 111.888 486.181 111.805 485.513 111.64C484.848 111.479 484.268 111.202 483.773 110.81C483.273 110.422 482.882 109.908 482.597 109.266C482.309 108.621 482.165 107.816 482.165 106.852ZM486.204 97.4732V94.9786L486.769 94.7251V97.4732H486.204ZM486.175 107.993V101.535H493.192V98.948H493.757V102.071H486.74V108.552C486.421 108.468 486.233 108.281 486.175 107.993ZM479.918 102.226V101.69H481.607V102.226H479.918ZM482.085 110.678C482.384 111.1 482.718 111.452 483.087 111.732C483.46 112.013 483.875 112.237 484.332 112.406C484.792 112.575 485.296 112.696 485.841 112.769C486.383 112.838 486.978 112.873 487.627 112.873H492.633V110.131H493.192V113.409H487.552C486.83 113.409 486.175 113.361 485.588 113.265C484.996 113.173 484.472 113.021 484.015 112.81C483.561 112.598 483.174 112.316 482.851 111.963C482.528 111.613 482.273 111.185 482.085 110.678ZM500.843 116.416H504.415L506.57 112.406L498.723 100.423H495.71V98.3143H505.32V100.423H502.335L508.143 109.485L513.011 100.423H509.595V98.3143H518.962V100.423H516.105L506.23 118.525H500.843V116.416ZM501.69 119.51H506.962L516.854 101.408H519.976V99.1036H520.535V101.944H517.176L507.313 120.046H501.69V119.51ZM508.258 107.567L504.317 101.408H506.334V99.1036H506.893V101.944H505.32L508.569 107.008L508.258 107.567ZM510.286 101.944V101.408H511.743L511.467 101.944H510.286ZM496.557 101.944V101.408H498.596L498.948 101.944H496.557ZM531.983 116.191L533.561 114.348C534.018 114.828 534.531 115.229 535.099 115.552C535.668 115.875 536.244 116.134 536.828 116.33C537.415 116.529 537.99 116.671 538.55 116.756C539.115 116.84 539.622 116.883 540.071 116.883C540.951 116.883 541.744 116.8 542.451 116.635C543.154 116.47 543.751 116.172 544.243 115.742C544.734 115.312 545.111 114.72 545.372 113.968C545.637 113.219 545.769 112.253 545.769 111.07V109.808C545.412 110.146 545.009 110.449 544.559 110.718C544.11 110.991 543.626 111.225 543.108 111.421C542.593 111.621 542.051 111.773 541.483 111.876C540.918 111.976 540.344 112.026 539.76 112.026C538.447 112.026 537.283 111.863 536.269 111.536C535.251 111.21 534.395 110.743 533.7 110.136C533.004 109.533 532.476 108.8 532.115 107.936C531.754 107.071 531.574 106.105 531.574 105.038C531.574 104.458 531.658 103.88 531.827 103.304C531.996 102.724 532.248 102.169 532.582 101.639C532.916 101.108 533.329 100.617 533.821 100.164C534.312 99.7104 534.877 99.3148 535.514 98.9768C536.152 98.6389 536.864 98.3738 537.652 98.1818C538.439 97.9898 539.292 97.8937 540.21 97.8937C540.644 97.8937 541.107 97.9341 541.598 98.0147C542.09 98.0915 542.579 98.2144 543.067 98.3834C543.555 98.5524 544.031 98.7714 544.496 99.0402C544.961 99.3052 545.385 99.6259 545.769 100.002V98.3143H551.819V100.705H548.719V111.07C548.719 112.579 548.51 113.847 548.091 114.872C547.669 115.894 547.077 116.714 546.317 117.332C545.556 117.95 544.654 118.394 543.609 118.663C542.564 118.928 541.418 119.06 540.169 119.06C539.44 119.06 538.689 119.005 537.917 118.893C537.149 118.782 536.402 118.611 535.676 118.381C534.95 118.15 534.268 117.854 533.63 117.493C532.993 117.132 532.444 116.698 531.983 116.191ZM532.812 118.144C533.281 118.482 533.811 118.774 534.402 119.02C534.994 119.262 535.612 119.458 536.257 119.608C536.907 119.758 537.563 119.869 538.228 119.942C538.892 120.011 539.539 120.046 540.169 120.046C541.022 120.046 541.852 119.982 542.658 119.856C543.465 119.729 544.221 119.525 544.928 119.245C545.639 118.964 546.29 118.594 546.881 118.133C547.469 117.672 547.974 117.107 548.396 116.439C548.819 115.767 549.147 114.983 549.382 114.089C549.616 113.194 549.733 112.164 549.733 111.001V101.69H552.827V99.1036H553.391V102.226H550.298V111.001C550.298 112.222 550.175 113.305 549.929 114.25C549.687 115.199 549.345 116.028 548.903 116.739C548.462 117.453 547.932 118.054 547.313 118.542C546.695 119.03 546.011 119.423 545.262 119.723C544.513 120.023 543.707 120.24 542.843 120.374C541.978 120.512 541.087 120.581 540.169 120.581C539.455 120.581 538.729 120.524 537.992 120.409C537.25 120.297 536.549 120.136 535.889 119.925C535.228 119.713 534.627 119.458 534.086 119.158C533.548 118.859 533.123 118.521 532.812 118.144ZM534.627 104.928C534.627 105.646 534.742 106.309 534.973 106.916C535.203 107.519 535.545 108.039 535.998 108.477C536.455 108.911 537.018 109.251 537.686 109.497C538.358 109.739 539.13 109.86 540.002 109.86C540.694 109.86 541.385 109.773 542.076 109.601C542.764 109.428 543.382 109.145 543.931 108.754C544.481 108.358 544.924 107.841 545.262 107.204C545.6 106.566 545.769 105.783 545.769 104.853C545.769 104.189 545.623 103.567 545.331 102.987C545.04 102.403 544.642 101.896 544.139 101.466C543.632 101.036 543.038 100.696 542.359 100.446C541.679 100.196 540.953 100.071 540.181 100.071C539.432 100.071 538.723 100.189 538.055 100.423C537.383 100.657 536.793 100.991 536.286 101.425C535.779 101.856 535.376 102.368 535.076 102.964C534.777 103.559 534.627 104.214 534.627 104.928ZM535.612 104.951C535.612 104.417 535.726 103.914 535.952 103.442C536.175 102.969 536.488 102.556 536.891 102.203C537.295 101.854 537.778 101.575 538.343 101.368C538.904 101.16 539.516 101.057 540.181 101.057C541.072 101.057 541.811 101.201 542.399 101.489C542.987 101.773 543.448 102.136 543.782 102.578C543.559 102.435 543.328 102.303 543.09 102.18C542.848 102.061 542.585 101.955 542.301 101.863C542.013 101.775 541.696 101.706 541.35 101.656C541.005 101.602 540.615 101.575 540.181 101.575C539.593 101.575 539.056 101.667 538.568 101.852C538.08 102.036 537.659 102.282 537.306 102.589C536.957 102.9 536.686 103.256 536.494 103.655C536.302 104.051 536.206 104.465 536.206 104.899C536.206 105.817 536.423 106.603 536.857 107.256C537.295 107.905 538.019 108.431 539.029 108.834C538.541 108.788 538.09 108.661 537.675 108.454C537.256 108.25 536.895 107.98 536.592 107.642C536.284 107.304 536.044 106.906 535.872 106.449C535.699 105.996 535.612 105.497 535.612 104.951ZM533.279 111.001C533.663 111.312 534.105 111.59 534.604 111.836C535.107 112.086 535.643 112.297 536.211 112.47C536.776 112.642 537.362 112.777 537.969 112.873C538.572 112.965 539.175 113.011 539.778 113.011C540.818 113.011 541.79 112.888 542.693 112.642C543.599 112.393 544.404 112.038 545.107 111.577L545.02 112.28C544.317 112.702 543.519 113.019 542.624 113.23C541.729 113.441 540.784 113.547 539.789 113.547C538.272 113.547 536.955 113.334 535.837 112.907C534.723 112.481 533.87 111.846 533.279 111.001ZM559.014 94.8115V92H562.46V94.8115H559.014ZM559.861 96.3324V95.7966H563.474V92.7893H564.038V96.3324H559.861ZM556.065 111.888V109.779H559.861L559.441 100.705H556.065V98.3143H562.46V109.779H565.697V111.888H556.065ZM563.445 108.932V99.0345H564.009V108.932H563.445ZM556.906 102.226V101.69H558.847V102.226H556.906ZM556.906 112.873H566.711V110.568H567.27V113.409H556.906V112.873ZM569.661 111.888V109.779H572.755V100.705H569.661V98.3143H575.78V100.665C576.071 100.288 576.421 99.9313 576.828 99.5933C577.235 99.2553 577.698 98.9596 578.217 98.7061C578.731 98.4526 579.294 98.2548 579.905 98.1127C580.511 97.9667 581.162 97.8937 581.858 97.8937C582.065 97.8937 582.322 97.8995 582.63 97.911C582.941 97.9264 583.236 97.9571 583.517 98.0032V100.763C583.187 100.686 582.862 100.634 582.543 100.607C582.224 100.58 581.915 100.567 581.616 100.567C580.867 100.567 580.156 100.686 579.484 100.924C578.816 101.162 578.218 101.51 577.692 101.967C577.166 102.42 576.736 102.975 576.402 103.632C576.064 104.289 575.856 105.04 575.78 105.885V109.779H580.844V111.888H569.661ZM576.765 108.932V107.146C576.765 106.267 576.878 105.479 577.105 104.784C577.327 104.089 577.648 103.503 578.067 103.027C578.485 102.547 578.994 102.18 579.593 101.927C580.193 101.677 580.867 101.552 581.616 101.552C581.777 101.552 581.979 101.564 582.221 101.587C582.466 101.61 582.722 101.644 582.987 101.69C583.256 101.736 583.526 101.794 583.799 101.863C584.072 101.936 584.316 102.019 584.531 102.111V98.7925H585.09V102.814C584.828 102.702 584.546 102.603 584.243 102.514C583.936 102.426 583.626 102.349 583.315 102.284C583 102.215 582.697 102.165 582.405 102.134C582.113 102.099 581.85 102.082 581.616 102.082C580.932 102.082 580.325 102.195 579.795 102.422C579.265 102.649 578.818 102.971 578.453 103.39C578.088 103.812 577.809 104.329 577.617 104.94C577.425 105.55 577.329 106.24 577.329 107.008V108.932H576.765ZM570.508 102.226V101.69H572.167V102.226H570.508ZM570.508 112.873H581.858V110.568H582.422V113.409H570.508V112.873ZM587.763 111.888V109.779H590.857V94.3736H587.763V92.265H593.881V109.779H596.975V111.888H587.763ZM594.866 108.932V92.9852H595.431V108.932H594.866ZM588.604 95.8946V95.3588H590.269V95.8946H588.604ZM588.604 112.873H597.989V110.568H598.554V113.409H588.604V112.873ZM613.389 94.8115V92H616.834V94.8115H613.389ZM614.23 96.3324V95.7966H617.848V92.7893H618.407V96.3324H614.23ZM610.433 111.888V109.779H614.23L613.809 100.705H610.433V98.3143H616.834V109.779H620.066V111.888H610.433ZM617.819 108.932V99.0345H618.378V108.932H617.819ZM611.28 102.226V101.69H613.216V102.226H611.28ZM611.28 112.873H621.08V110.568H621.645V113.409H611.28V112.873ZM624.203 111.888V109.779H627.296V100.705H624.203V98.3143H630.321V100.44C630.613 100.083 630.962 99.7488 631.37 99.4377C631.777 99.1305 632.234 98.8616 632.741 98.6312C633.248 98.4007 633.797 98.2202 634.388 98.0896C634.976 97.959 635.594 97.8937 636.244 97.8937C637.219 97.8937 638.104 98.032 638.9 98.3085C639.698 98.5851 640.378 99.0114 640.939 99.5875C641.504 100.164 641.938 100.89 642.241 101.765C642.544 102.645 642.696 103.684 642.696 104.882V109.779H645.79V111.888H637.281V109.779H639.671V106.08C639.671 105.32 639.637 104.642 639.568 104.047C639.499 103.451 639.399 102.985 639.268 102.647C639.099 102.217 638.886 101.852 638.629 101.552C638.368 101.249 638.076 101.005 637.753 100.82C637.43 100.632 637.077 100.496 636.693 100.411C636.309 100.327 635.9 100.285 635.466 100.285C635.009 100.285 634.534 100.369 634.043 100.538C633.551 100.707 633.073 100.943 632.608 101.247C632.143 101.55 631.711 101.909 631.312 102.324C630.913 102.735 630.582 103.181 630.321 103.661V109.779H632.712V111.888H624.203ZM643.71 108.932V104.98C643.71 104.154 643.647 103.388 643.52 102.681C643.393 101.975 643.203 101.337 642.95 100.769C642.696 100.2 642.385 99.7104 642.016 99.2995C641.648 98.8885 641.219 98.5601 640.732 98.3143C641.369 98.4756 641.913 98.7445 642.362 99.1209C642.811 99.5011 643.176 99.9831 643.457 100.567C643.737 101.147 643.944 101.817 644.079 102.578C644.209 103.338 644.275 104.172 644.275 105.078V108.932H643.71ZM631.335 108.932V104.012C631.569 103.597 631.848 103.221 632.17 102.883C632.493 102.549 632.844 102.261 633.225 102.019C633.605 101.781 634.004 101.596 634.423 101.466C634.838 101.335 635.253 101.27 635.667 101.27C636.313 101.27 636.837 101.391 637.24 101.633C637.644 101.879 637.939 102.188 638.127 102.56C637.836 102.345 637.496 102.163 637.108 102.013C636.72 101.863 636.23 101.788 635.639 101.788C635.274 101.788 634.903 101.856 634.527 101.99C634.15 102.128 633.793 102.309 633.455 102.532C633.117 102.758 632.814 103.017 632.545 103.309C632.272 103.597 632.055 103.893 631.894 104.197V108.932H631.335ZM625.044 102.226V101.69H626.709V102.226H625.044ZM638.127 112.873H646.804V110.568H647.368V113.409H638.127V112.873ZM625.044 112.873H633.726V110.568H634.285V113.409H625.044V112.873ZM661.247 106.852V100.705H658.154V98.3143H661.247V95.474L664.272 94.2065V98.3143H671.26V100.705H664.272V107.417C664.272 108.12 664.493 108.642 664.934 108.984C665.372 109.326 665.972 109.497 666.732 109.497H670.701V111.888H666.732C665.972 111.888 665.259 111.805 664.595 111.64C663.93 111.479 663.348 111.202 662.849 110.81C662.353 110.422 661.964 109.908 661.679 109.266C661.391 108.621 661.247 107.816 661.247 106.852ZM665.286 97.4732V94.9786L665.845 94.7251V97.4732H665.286ZM665.257 107.993V101.535H672.274V98.948H672.839V102.071H665.822V108.552C665.503 108.468 665.315 108.281 665.257 107.993ZM658.995 102.226V101.69H660.683V102.226H658.995ZM661.161 110.678C661.464 111.1 661.8 111.452 662.169 111.732C662.538 112.013 662.953 112.237 663.414 112.406C663.874 112.575 664.376 112.696 664.917 112.769C665.463 112.838 666.058 112.873 666.703 112.873H671.715V110.131H672.274V113.409H666.634C665.912 113.409 665.255 113.361 664.664 113.265C664.076 113.173 663.554 113.021 663.097 112.81C662.643 112.598 662.256 112.316 661.933 111.963C661.606 111.613 661.349 111.185 661.161 110.678ZM675.915 111.888V109.779H679.009V94.5177H675.915V92.265H682.034V100.44C682.326 100.083 682.675 99.7488 683.082 99.4377C683.489 99.1305 683.947 98.8616 684.453 98.6312C684.96 98.4007 685.51 98.2202 686.101 98.0896C686.693 97.959 687.311 97.8937 687.956 97.8937C688.932 97.8937 689.819 98.032 690.618 98.3085C691.413 98.5851 692.093 99.0114 692.658 99.5875C693.218 100.164 693.65 100.89 693.954 101.765C694.261 102.645 694.415 103.684 694.415 104.882V109.779H697.508V111.888H688.999V109.779H691.39V106.08C691.39 105.32 691.354 104.642 691.281 104.047C691.211 103.451 691.112 102.985 690.981 102.647C690.812 102.217 690.599 101.852 690.341 101.552C690.084 101.249 689.794 101.005 689.472 100.82C689.145 100.632 688.79 100.496 688.406 100.411C688.022 100.327 687.615 100.285 687.184 100.285C686.723 100.285 686.247 100.369 685.756 100.538C685.264 100.707 684.786 100.943 684.321 101.247C683.856 101.55 683.424 101.909 683.025 102.324C682.629 102.735 682.299 103.181 682.034 103.661V109.779H684.425V111.888H675.915ZM683.019 98.4987V92.9852H683.584V98.1299C683.499 98.1684 683.403 98.2202 683.296 98.2855C683.188 98.3508 683.096 98.4218 683.019 98.4987ZM676.762 96.0386V95.5028H678.422V96.0386H676.762ZM695.423 108.932V104.98C695.423 104.154 695.361 103.388 695.239 102.681C695.112 101.975 694.922 101.337 694.668 100.769C694.415 100.2 694.102 99.7104 693.729 99.2995C693.36 98.8885 692.932 98.5601 692.444 98.3143C693.082 98.4756 693.625 98.7445 694.075 99.1209C694.524 99.5011 694.891 99.9831 695.175 100.567C695.456 101.147 695.661 101.817 695.792 102.578C695.922 103.338 695.987 104.172 695.987 105.078V108.932H695.423ZM683.048 108.932V104.012C683.282 103.597 683.561 103.221 683.883 102.883C684.21 102.549 684.559 102.261 684.932 102.019C685.308 101.781 685.7 101.596 686.107 101.466C686.514 101.335 686.925 101.27 687.34 101.27C687.985 101.27 688.517 101.391 688.936 101.633C689.351 101.879 689.652 102.188 689.84 102.56C689.552 102.345 689.207 102.165 688.803 102.019C688.4 101.877 687.903 101.806 687.311 101.806C686.946 101.806 686.576 101.871 686.199 102.001C685.823 102.132 685.471 102.305 685.145 102.52C684.815 102.735 684.517 102.983 684.252 103.263C683.983 103.547 683.77 103.839 683.612 104.139V108.932H683.048ZM689.84 112.873H698.522V110.568H699.081V113.409H689.84V112.873ZM676.762 112.873H685.439V110.568H686.003V113.409H676.762V112.873ZM701.403 105.36C701.403 104.366 701.585 103.419 701.95 102.52C702.315 101.621 702.864 100.828 703.598 100.141C704.328 99.4569 705.236 98.9116 706.323 98.5044C707.414 98.0973 708.676 97.8937 710.108 97.8937C711.46 97.8937 712.664 98.0743 713.721 98.4353C714.781 98.7963 715.681 99.3187 716.423 100.002C717.164 100.686 717.728 101.523 718.116 102.514C718.508 103.501 718.704 104.629 718.704 105.896H704.48C704.564 106.572 704.783 107.171 705.136 107.694C705.49 108.22 705.937 108.663 706.479 109.024C707.024 109.385 707.641 109.66 708.328 109.848C709.019 110.036 709.74 110.131 710.488 110.131C711.099 110.131 711.719 110.081 712.349 109.981C712.983 109.885 713.582 109.752 714.147 109.583C714.708 109.414 715.209 109.224 715.651 109.013C716.092 108.802 716.43 108.583 716.665 108.356H717.2L718.52 109.791C717.556 110.616 716.38 111.242 714.994 111.669C713.611 112.095 712.086 112.308 710.419 112.308C708.964 112.308 707.677 112.13 706.559 111.773C705.438 111.419 704.495 110.928 703.731 110.298C702.966 109.672 702.386 108.936 701.991 108.091C701.599 107.246 701.403 106.336 701.403 105.36ZM705.833 106.881H719.66C719.68 106.739 719.693 106.587 719.701 106.426C719.712 106.261 719.718 106.084 719.718 105.896C719.718 105.097 719.635 104.335 719.47 103.609C719.305 102.883 719.065 102.209 718.75 101.587C718.435 100.961 718.049 100.39 717.592 99.8756C717.131 99.3609 716.611 98.9212 716.031 98.5563C716.649 98.7982 717.22 99.1324 717.742 99.5587C718.26 99.9851 718.708 100.504 719.084 101.114C719.457 101.725 719.749 102.428 719.96 103.223C720.171 104.022 720.277 104.913 720.277 105.896C720.277 105.969 720.275 106.063 720.271 106.178C720.267 106.29 720.26 106.417 720.248 106.559C720.24 106.697 720.229 106.839 720.213 106.985C720.202 107.131 720.187 107.275 720.167 107.417H706.876C707.053 107.717 707.379 108.024 707.856 108.339C708.336 108.65 708.956 108.913 709.716 109.128C709.248 109.128 708.808 109.072 708.397 108.961C707.99 108.85 707.621 108.696 707.291 108.5C706.957 108.3 706.665 108.062 706.415 107.786C706.166 107.509 705.972 107.208 705.833 106.881ZM704.566 104.139H715.455C715.305 103.49 715.073 102.912 714.758 102.405C714.443 101.902 714.057 101.479 713.6 101.137C713.139 100.792 712.612 100.529 712.021 100.348C711.429 100.164 710.782 100.071 710.079 100.071C709.319 100.071 708.628 100.173 708.005 100.377C707.383 100.577 706.838 100.857 706.369 101.218C705.901 101.579 705.513 102.009 705.205 102.508C704.902 103.004 704.689 103.547 704.566 104.139ZM706.496 103.534H705.845C706.194 102.766 706.742 102.161 707.487 101.719C708.232 101.277 709.096 101.057 710.079 101.057C710.483 101.057 710.874 101.089 711.255 101.155C711.635 101.22 711.986 101.322 712.309 101.46C712.632 101.594 712.916 101.76 713.162 101.955C713.404 102.155 713.596 102.382 713.738 102.635C713.204 102.278 712.632 102.015 712.021 101.846C711.41 101.677 710.754 101.592 710.051 101.592C709.236 101.592 708.52 101.761 707.902 102.099C707.283 102.437 706.815 102.916 706.496 103.534ZM703.103 111.271C704.013 111.917 705.071 112.418 706.277 112.775C707.479 113.132 708.86 113.311 710.419 113.311C711.936 113.311 713.36 113.136 714.688 112.787C716.014 112.441 717.21 111.911 718.278 111.196L718.658 111.605C717.448 112.424 716.177 113 714.844 113.334C713.507 113.672 712.107 113.841 710.644 113.841C708.739 113.841 707.16 113.612 705.908 113.155C704.656 112.694 703.721 112.066 703.103 111.271ZM740.418 111.888L734.438 100.423H731.459V98.3143H740.827V100.423H737.929L742.233 109.255L747.182 100.423H744.324V98.3143H753.692V100.423H750.909L755.651 109.37L759.828 100.423H756.918V98.3143H765.86V100.423H762.881L757.183 111.888H753.778L748.956 102.733L743.794 111.888H740.418ZM754.764 112.873H757.898L763.613 101.408H766.874V99.1036H767.438V101.944H763.976L758.278 113.409H754.977L754.764 112.873ZM752.713 101.408H754.706V99.1036H755.271V101.944H753.64L756.112 106.668L755.818 107.29L752.713 101.408ZM742.486 107.233L739.629 101.408H741.835V99.1036H742.4V101.944H740.528L742.821 106.657L742.486 107.233ZM757.604 101.944V101.408H758.785L758.531 101.944H757.604ZM745.016 101.944V101.408H746.041L745.747 101.944H745.016ZM732.289 101.944V101.408H734.369L734.651 101.944H732.289ZM741.259 112.873H744.48L749.221 104.473L749.544 105.066L744.831 113.409H741.472L741.259 112.873ZM769.334 105.32C769.334 104.298 769.555 103.334 769.996 102.428C770.438 101.525 771.054 100.738 771.846 100.066C772.637 99.3936 773.585 98.8635 774.692 98.4756C775.798 98.0877 777.013 97.8937 778.338 97.8937C779.725 97.8937 780.964 98.0781 782.054 98.4468C783.149 98.8194 784.073 99.334 784.826 99.9908C785.582 100.644 786.16 101.422 786.56 102.324C786.955 103.223 787.153 104.202 787.153 105.262C787.153 106.284 786.936 107.227 786.502 108.091C786.064 108.951 785.446 109.695 784.647 110.321C783.844 110.943 782.882 111.431 781.761 111.784C780.639 112.134 779.389 112.308 778.01 112.308C776.708 112.308 775.525 112.114 774.461 111.726C773.397 111.339 772.485 110.82 771.725 110.171C770.964 109.526 770.376 108.782 769.962 107.941C769.543 107.104 769.334 106.23 769.334 105.32ZM771.54 111.242C772.45 111.899 773.457 112.404 774.559 112.758C775.661 113.115 776.906 113.293 778.292 113.293C779.587 113.293 780.829 113.119 782.02 112.769C783.211 112.416 784.261 111.897 785.171 111.214C786.082 110.53 786.807 109.689 787.349 108.69C787.894 107.692 788.167 106.549 788.167 105.262C788.167 104.636 788.081 104.001 787.908 103.355C787.735 102.714 787.491 102.098 787.176 101.506C786.861 100.915 786.479 100.363 786.03 99.8526C785.58 99.3417 785.079 98.9096 784.526 98.5563C785.152 98.8367 785.726 99.2054 786.249 99.6624C786.767 100.123 787.211 100.648 787.579 101.235C787.944 101.819 788.227 102.453 788.426 103.136C788.63 103.824 788.732 104.533 788.732 105.262C788.732 106.18 788.599 107.031 788.334 107.815C788.073 108.598 787.71 109.307 787.245 109.94C786.781 110.574 786.227 111.135 785.586 111.623C784.945 112.111 784.24 112.516 783.472 112.838C782.7 113.161 781.882 113.407 781.017 113.576C780.149 113.745 779.264 113.829 778.361 113.829C777.613 113.829 776.896 113.77 776.213 113.651C775.529 113.535 774.893 113.368 774.306 113.149C773.722 112.927 773.194 112.656 772.721 112.337C772.253 112.018 771.859 111.653 771.54 111.242ZM772.456 105.262C772.456 105.984 772.595 106.643 772.871 107.238C773.148 107.834 773.539 108.345 774.046 108.771C774.553 109.197 775.16 109.528 775.867 109.762C776.574 109.996 777.359 110.113 778.223 110.113C779.095 110.113 779.888 109.994 780.603 109.756C781.313 109.518 781.926 109.186 782.44 108.759C782.959 108.333 783.358 107.822 783.639 107.227C783.919 106.632 784.059 105.977 784.059 105.262C784.059 104.559 783.919 103.897 783.639 103.275C783.358 102.649 782.965 102.099 782.458 101.627C781.951 101.155 781.344 100.78 780.637 100.504C779.927 100.227 779.145 100.089 778.292 100.089C777.401 100.089 776.599 100.221 775.884 100.486C775.166 100.755 774.553 101.122 774.046 101.587C773.539 102.051 773.148 102.597 772.871 103.223C772.595 103.853 772.456 104.533 772.456 105.262ZM773.441 105.32C773.441 104.728 773.559 104.173 773.793 103.655C774.027 103.133 774.357 102.681 774.784 102.301C775.21 101.921 775.721 101.621 776.316 101.402C776.912 101.183 777.57 101.074 778.292 101.074C778.753 101.074 779.199 101.122 779.629 101.218C780.059 101.318 780.459 101.462 780.827 101.65C781.192 101.834 781.515 102.061 781.795 102.33C782.076 102.599 782.3 102.902 782.469 103.24C781.851 102.676 781.208 102.263 780.539 102.001C779.867 101.736 779.109 101.604 778.264 101.604C777.657 101.604 777.094 101.704 776.576 101.904C776.061 102.099 775.611 102.366 775.227 102.704C774.843 103.042 774.544 103.436 774.329 103.885C774.114 104.335 774.006 104.813 774.006 105.32C774.006 105.742 774.056 106.136 774.156 106.501C774.259 106.866 774.436 107.206 774.686 107.521C774.936 107.836 775.266 108.12 775.677 108.373C776.092 108.627 776.608 108.852 777.227 109.047C776.662 109.009 776.147 108.89 775.683 108.69C775.218 108.487 774.82 108.222 774.49 107.895C774.156 107.565 773.898 107.179 773.718 106.737C773.534 106.299 773.441 105.827 773.441 105.32ZM792.384 111.888V109.779H795.478V100.705H792.384V98.3143H798.503V100.665C798.795 100.288 799.144 99.9313 799.551 99.5933C799.958 99.2553 800.421 98.9596 800.94 98.7061C801.454 98.4526 802.017 98.2548 802.628 98.1127C803.235 97.9667 803.886 97.8937 804.581 97.8937C804.788 97.8937 805.046 97.8995 805.353 97.911C805.664 97.9264 805.96 97.9571 806.24 98.0032V100.763C805.914 100.686 805.591 100.634 805.272 100.607C804.953 100.58 804.642 100.567 804.339 100.567C803.59 100.567 802.881 100.686 802.213 100.924C801.541 101.162 800.942 101.51 800.415 101.967C799.893 102.42 799.463 102.975 799.125 103.632C798.787 104.289 798.58 105.04 798.503 105.885V109.779H803.567V111.888H792.384ZM799.488 108.932V107.146C799.488 106.267 799.601 105.479 799.828 104.784C800.051 104.089 800.371 103.503 800.79 103.027C801.209 102.547 801.717 102.18 802.317 101.927C802.916 101.677 803.59 101.552 804.339 101.552C804.5 101.552 804.702 101.564 804.944 101.587C805.19 101.61 805.447 101.644 805.716 101.69C805.981 101.736 806.25 101.794 806.522 101.863C806.795 101.936 807.039 102.019 807.254 102.111V98.7925H807.813V102.814C807.552 102.702 807.269 102.603 806.966 102.514C806.659 102.426 806.349 102.349 806.038 102.284C805.723 102.215 805.42 102.165 805.128 102.134C804.836 102.099 804.573 102.082 804.339 102.082C803.655 102.082 803.048 102.195 802.518 102.422C801.988 102.649 801.541 102.971 801.176 103.39C800.811 103.812 800.533 104.329 800.341 104.94C800.148 105.55 800.052 106.24 800.052 107.008V108.932H799.488ZM793.231 102.226V101.69H794.89V102.226H793.231ZM793.231 112.873H804.581V110.568H805.145V113.409H793.231V112.873ZM810.486 111.888V109.779H813.58V94.3736H810.486V92.265H816.604V109.779H819.698V111.888H810.486ZM817.59 108.932V92.9852H818.154V108.932H817.59ZM811.333 95.8946V95.3588H812.992V95.8946H811.333ZM811.333 112.873H820.712V110.568H821.277V113.409H811.333V112.873ZM823.875 105.291C823.875 104.419 824.058 103.559 824.422 102.71C824.791 101.861 825.333 101.101 826.047 100.429C826.765 99.7604 827.655 99.2169 828.715 98.7982C829.775 98.3834 830.994 98.176 832.373 98.176C832.811 98.176 833.281 98.2087 833.784 98.274C834.288 98.3393 834.789 98.4468 835.288 98.5966C835.791 98.7464 836.281 98.9461 836.757 99.1958C837.237 99.4416 837.673 99.7431 838.065 100.1V94.5177H834.971V92.265H841.09V109.779H843.481V111.888H838.065V110.102C837.335 110.812 836.454 111.358 835.421 111.738C834.391 112.118 833.272 112.308 832.062 112.308C830.91 112.308 829.836 112.157 828.841 111.853C827.847 111.55 826.98 111.102 826.243 110.511C825.509 109.919 824.931 109.188 824.509 108.316C824.086 107.444 823.875 106.436 823.875 105.291ZM842.104 108.932V92.9852H842.668V108.932H842.104ZM835.818 96.0386V95.5028H837.477V96.0386H835.818ZM826.929 105.176C826.929 105.936 827.053 106.622 827.303 107.233C827.549 107.843 827.904 108.364 828.369 108.794C828.834 109.224 829.396 109.556 830.057 109.791C830.718 110.025 831.465 110.142 832.298 110.142C832.74 110.142 833.189 110.098 833.646 110.01C834.099 109.921 834.539 109.785 834.965 109.601C835.392 109.42 835.795 109.191 836.175 108.915C836.556 108.638 836.884 108.31 837.161 107.93C837.437 107.55 837.658 107.116 837.823 106.628C837.984 106.14 838.065 105.596 838.065 104.997C838.065 104.329 837.911 103.713 837.604 103.148C837.293 102.58 836.878 102.09 836.36 101.679C835.837 101.264 835.231 100.94 834.539 100.705C833.844 100.471 833.112 100.354 832.344 100.354C831.591 100.354 830.888 100.471 830.236 100.705C829.579 100.94 829.005 101.268 828.513 101.69C828.017 102.113 827.63 102.622 827.349 103.217C827.069 103.812 826.929 104.465 826.929 105.176ZM827.914 105.176C827.914 104.642 828.019 104.147 828.231 103.69C828.442 103.229 828.74 102.825 829.124 102.48C829.508 102.13 829.974 101.857 830.524 101.662C831.069 101.466 831.676 101.368 832.344 101.368C833.301 101.368 834.107 101.508 834.764 101.788C835.421 102.069 835.866 102.42 836.1 102.843C835.593 102.516 835.023 102.278 834.389 102.128C833.756 101.978 833.074 101.904 832.344 101.904C831.753 101.904 831.221 101.99 830.748 102.163C830.272 102.336 829.869 102.572 829.538 102.871C829.204 103.171 828.945 103.524 828.761 103.931C828.58 104.342 828.49 104.776 828.49 105.234C828.49 107.008 829.489 108.312 831.486 109.145C830.913 109.08 830.406 108.93 829.965 108.696C829.523 108.462 829.15 108.168 828.847 107.815C828.544 107.465 828.311 107.064 828.15 106.61C827.993 106.161 827.914 105.683 827.914 105.176ZM838.912 112.873H844.495V110.568H845.059V113.409H838.912V112.873ZM825.69 111.283C826.074 111.594 826.51 111.872 826.998 112.118C827.486 112.368 828.006 112.579 828.559 112.752C829.112 112.925 829.686 113.059 830.282 113.155C830.877 113.247 831.474 113.293 832.073 113.293C833.114 113.293 834.088 113.165 834.994 112.907C835.901 112.65 836.705 112.291 837.408 111.83V112.481C836.705 112.9 835.891 113.23 834.965 113.472C834.044 113.71 833.085 113.829 832.091 113.829C830.57 113.829 829.271 113.616 828.196 113.19C827.117 112.763 826.281 112.128 825.69 111.283Z" fill="#FBEAAB"/>
</g>
</g>
</g>
</g>
<g clip-path="url(#clip9_3106_5716)">
<g clip-path="url(#clip10_3106_5716)">
<path d="M68.9802 0H2V14.5609H68.9802V0Z" fill="#FBEAAB"/>
<path d="M68.9802 26.21H2V40.7709H68.9802V26.21Z" fill="#FBEAAB"/>
<path d="M68.9802 52.4189H2V66.9799H68.9802V52.4189Z" fill="#FBEAAB"/>
<path d="M141.785 72.8047H74.8047V87.3656H141.785V72.8047Z" fill="#FBEAAB"/>
<path d="M141.785 99.0146H74.8047V113.576H141.785V99.0146Z" fill="#FBEAAB"/>
<path d="M141.785 125.224H74.8047V139.785H141.785V125.224Z" fill="#FBEAAB"/>
<path d="M68.9803 72.8047H54.4194V139.785H68.9803V72.8047Z" fill="#F3A83C"/>
<path d="M42.7706 72.8047H28.2097V139.785H42.7706V72.8047Z" fill="#F3A83C"/>
<path d="M16.5609 72.8047H2V139.785H16.5609V72.8047Z" fill="#F3A83C"/>
<path d="M141.785 0H127.224V66.9802H141.785V0Z" fill="#F3A83C"/>
<path d="M115.575 0H101.014V66.9802H115.575V0Z" fill="#F3A83C"/>
<path d="M89.3656 0H74.8047V66.9802H89.3656V0Z" fill="#F3A83C"/>
</g>
</g>
</g>
</g>
</g>
<defs>
<clipPath id="clip0_3106_5716">
<rect width="1050" height="141" fill="white"/>
</clipPath>
<clipPath id="clip1_3106_5716">
<rect width="1085" height="139" fill="white" transform="translate(2 1)"/>
</clipPath>
<clipPath id="clip2_3106_5716">
<rect width="1142" height="139" fill="white" transform="translate(2 1)"/>
</clipPath>
<clipPath id="clip3_3106_5716">
<rect width="842.219" height="101.147" fill="white" transform="translate(205 20)"/>
</clipPath>
<clipPath id="clip4_3106_5716">
<rect width="842.219" height="101.147" fill="white" transform="translate(205 20)"/>
</clipPath>
<clipPath id="clip5_3106_5716">
<rect width="842.219" height="58.7062" fill="white" transform="translate(205 20)"/>
</clipPath>
<clipPath id="clip6_3106_5716">
<rect width="842.219" height="58.7062" fill="white" transform="translate(205 20)"/>
</clipPath>
<clipPath id="clip7_3106_5716">
<rect width="640.086" height="28.5814" fill="white" transform="translate(205 92)"/>
</clipPath>
<clipPath id="clip8_3106_5716">
<rect width="640.086" height="28.5814" fill="white" transform="translate(205 92)"/>
</clipPath>
<clipPath id="clip9_3106_5716">
<rect width="139.785" height="139.785" fill="white" transform="translate(2)"/>
</clipPath>
<clipPath id="clip10_3106_5716">
<rect width="139.785" height="139.785" fill="white" transform="translate(2)"/>
</clipPath>
</defs>
</svg>
